<svg xmlns="http://www.w3.org/2000/svg" viewBox="0 0 512 512" style="overflow: visible;"><rect fill="none" width="100%" height="100%" data-fl-background="" x="0" y="0"></rect><g data-icon="" transform="matrix(0.38904720544815063, 0, 0, 0.38904720544815063, 156.40391540527344, 69.79423522949219)"><circle cx="256" cy="256" r="256" fill="#00C7FF"></circle><path d="M512 256c0-0.037-0.001-0.073-0.001-0.11L392.127 136.018L100.5 375.982l135.219 135.219
	C242.411 511.726 249.173 512 256 512C397.385 512 512 397.385 512 256z" fill="#0093C4"></path><polygon points="392.127,136.018 256,136.018 243.842,349.394 392.127,337.236" fill="#9ABADB"></polygon><polygon points="119.873,136.018 119.873,337.236 256,349.394 256,136.018" fill="#D1E8FF"></polygon><polygon points="411.5,337.236 256,337.236 243.842,356.609 256,375.982 411.5,375.982" fill="#D1E8FF"></polygon><rect x="100.5" y="337.24" width="155.5" height="38.747" fill="#F5F5FF"></rect><polygon points="373.904,154.24 256,154.24 243.842,236.627 256,319.013 373.904,319.013" fill="#294B6E"></polygon><rect x="138.1" y="154.24" width="117.9" height="164.77" fill="#6283A3"></rect><polygon points="209.124,284.901 160.85,236.627 209.124,188.353 222.009,201.238 186.62,236.627 
	222.009,272.016" fill="#F5F5FF"></polygon><polygon points="302.876,284.901 289.991,272.016 325.38,236.627 289.991,201.238 302.876,188.353 
		351.15,236.627" fill="#D1E8FF"></polygon><rect x="246.888" y="179.052" transform="matrix(-0.9808001518249512, -0.19509997963905334, 0.19509997963905334, -0.9808001518249512, 460.9119873046875, 518.6826171875)" width="18.223" height="115.182" fill="#D1E8FF"></rect></g><path text-anchor="middle" offset="0.5" fill="#294b6e" space="preserve" font-scale="contain" font-size="48" font-family="Michroma" text="AxelSys" font-style="normal" font-weight="400" data-fl-textpath="" transform="matrix(1.5561888217926025, 0, 0, 1.5561888217926025, 254.83285522460938, 363.5248718261719)" d="M-84.703 0L-89.203-8.25L-117.703-8.25L-122.203 0L-127.453 0L-106.453-36L-100.453-36L-79.453 0L-84.703 0ZM-115.453-12L-91.453-12L-103.453-33L-115.453-12ZM-58.873-11.3L-48.043 0L-42.043 0L-55.873-13.76L-42.703-27L-48.703-27L-58.753-16.57L-69.043-27L-75.043-27L-61.873-13.73L-75.703 0L-69.703 0L-58.873-11.3ZM-23.297 0.52L-23.297 0.52Q-27.797 0.52 -30.937-0.11Q-34.077-0.73 -36.047-2.25Q-38.017-3.77 -38.907-6.33Q-39.797-8.88 -39.797-12.75L-39.797-12.75Q-39.797-17.18 -38.907-20.07Q-38.017-22.97 -36.047-24.68Q-34.077-26.39 -30.937-27.07Q-27.797-27.75 -23.297-27.75L-23.297-27.75Q-20.087-27.75 -17.727-27.28Q-15.377-26.81 -13.697-25.92Q-12.027-25.03 -10.977-23.77Q-9.937-22.5 -9.337-21.11Q-8.747-19.71 -8.517-17.84Q-8.297-15.96 -8.297-13.88L-8.297-13.88L-8.667-12.38L-35.297-12.38Q-35.297-9.28 -34.687-7.3Q-34.077-5.32 -32.667-4.41Q-31.267-3.49 -28.967-3.25Q-26.667-3 -23.297-3L-23.297-3Q-20.207-3 -18.177-3.18Q-16.147-3.35 -14.957-3.84Q-13.757-4.34 -13.277-5.21Q-12.797-6.09 -12.797-7.5L-12.797-7.5L-8.297-7.5Q-8.297-5.32 -9.057-3.79Q-9.817-2.25 -11.577-1.3Q-13.337-0.35 -16.207 0.08Q-19.077 0.52 -23.297 0.52ZM-23.297-24L-23.297-24Q-25.547-24 -27.317-23.91Q-29.087-23.81 -30.407-23.5Q-31.737-23.18 -32.667-22.58Q-33.607-21.98 -34.187-21.18Q-34.757-20.37 -35.027-18.9Q-35.297-17.44 -35.297-15.38L-35.297-15.38L-12.797-15.38Q-12.797-18.12 -13.387-19.68Q-13.967-21.23 -15.237-22.24Q-16.497-23.25 -18.497-23.63Q-20.487-24 -23.297-24ZM-0.797 0L-0.797-36L 3.703-36L 3.703 0L-0.797 0ZM 29.203-20.25L 35.393-20.25Q 39.093-20.25  41.743-19.95Q 44.393-19.64  46.203-19.04Q 48.023-18.45  49.103-17.55Q 50.183-16.66  50.763-15.53Q 51.353-14.39  51.523-12.98Q 51.703-11.58  51.703-9.94L 51.703-9.94Q 51.703-8.3  51.413-6.86Q 51.113-5.41  50.363-4.22Q 49.613-3.02  48.333-2.09Q 47.043-1.15  45.043-0.49Q 43.053 0.16  40.253 0.5Q 37.453 0.84  33.703 0.84L 33.703 0.84L 27.703 0.84Q 24.333 0.84  21.793 0.59Q 19.263 0.33  17.433-0.2Q 15.613-0.73  14.413-1.54Q 13.223-2.34  12.503-3.43Q 11.793-4.52  11.503-5.92Q 11.223-7.31  11.223-9L 11.223-9L 15.723-9Q 15.723-6.89  16.333-5.7Q 16.943-4.5  18.353-3.9Q 19.753-3.3  22.043-3.15Q 24.333-3  27.703-3L 27.703-3L 33.703-3Q 37.643-3  40.243-3.38Q 42.843-3.75  44.393-4.57Q 45.933-5.39  46.573-6.71Q 47.203-8.04  47.203-9.94L 47.203-9.94Q 47.203-11.84  46.773-13.1Q 46.333-14.37  45.063-15.12Q 43.783-15.87  41.463-16.18Q 39.143-16.5  35.393-16.5L 35.393-16.5L 29.203-16.5Q 25.083-16.5  22.133-16.8Q 19.193-17.11  17.203-17.68Q 15.213-18.26  14.013-19.11Q 12.823-19.97  12.203-21.07Q 11.583-22.17  11.393-23.52Q 11.203-24.87  11.203-26.44L 11.203-26.44Q 11.203-28.08  11.493-29.48Q 11.793-30.89  12.583-32.03Q 13.383-33.16  14.763-34.05Q 16.153-34.95  18.313-35.54Q 20.483-36.14  23.533-36.45Q 26.583-36.75  30.703-36.75L 30.703-36.75L 35.203-36.75Q 38.583-36.75  41.113-36.5Q 43.643-36.26  45.473-35.73Q 47.293-35.2  48.503-34.42Q 49.713-33.63  50.423-32.54Q 51.143-31.45  51.423-30.07Q 51.703-28.69  51.703-27L 51.703-27L 47.203-27Q 47.203-29.11  46.593-30.3Q 45.983-31.5  44.583-32.1Q 43.173-32.7  40.873-32.85Q 38.583-33  35.203-33L 35.203-33L 30.703-33Q 26.203-33  23.293-32.68Q 20.393-32.37  18.703-31.62Q 17.013-30.87  16.363-29.6Q 15.703-28.34  15.703-26.44L 15.703-26.44Q 15.703-25.27  15.863-24.35Q 16.033-23.44  16.533-22.75Q 17.043-22.05  17.953-21.59Q 18.863-21.12  20.363-20.81Q 21.863-20.51  24.033-20.38Q 26.203-20.25  29.203-20.25L 29.203-20.25ZM 56.203-27L 70.453 0L 71.953 0Q 71.583 0.75  71.283 1.43Q 70.993 2.11  70.573 2.7Q 70.153 3.28  69.513 3.75Q 68.883 4.22  67.843 4.56Q 66.793 4.9  65.253 5.07Q 63.703 5.25  61.453 5.25L 61.453 5.25L 61.453 9Q 64.083 9  66.003 8.75Q 67.923 8.51  69.313 8.05Q 70.713 7.59  71.673 6.94Q 72.633 6.28  73.333 5.45Q 74.043 4.62  74.593 3.62Q 75.143 2.63  75.703 1.5L 75.703 1.5L 76.453 0L 89.953-27L 84.703-27L 73.453-3L 61.453-27L 56.203-27ZM 110.203-12.3L 110.203-12.3Q 112.833-12.3  114.683-12.22Q 116.533-12.14  117.783-11.94Q 119.043-11.74  119.763-11.44Q 120.493-11.13  120.863-10.54Q 121.243-9.94  121.343-9.34Q 121.453-8.74  121.453-7.97L 121.453-7.97Q 121.453-7.13  121.343-6.43Q 121.243-5.74  120.843-5.18Q 120.443-4.62  119.673-4.22Q 118.903-3.82  117.563-3.54Q 116.223-3.26  114.243-3.13Q 112.263-3  109.453-3L 109.453-3Q 106.363-3  104.333-3.18Q 102.303-3.35  101.113-3.84Q 99.913-4.34  99.433-5.21Q 98.953-6.09  98.953-7.5L 98.953-7.5L 94.453-7.5Q 94.453-5.37  95.213-3.89Q 95.973-2.41  97.733-1.49Q 99.493-0.56  102.363-0.14Q 105.233 0.28  109.453 0.28L 109.453 0.28Q 112.833 0.28  115.373 0.08Q 117.913-0.12  119.743-0.53Q 121.573-0.94  122.773-1.61Q 123.983-2.27  124.683-3.2Q 125.393-4.13  125.673-5.33Q 125.953-6.54  125.953-8.06L 125.953-8.06Q 125.953-9.59  125.673-10.75Q 125.393-11.91  124.703-12.76Q 124.003-13.62  122.863-14.34Q 121.713-15.07  119.953-15.42Q 118.193-15.77  115.793-15.91Q 113.393-16.05  110.203-16.05L 110.203-16.05Q 107.583-16.05  105.723-16.07Q 103.873-16.08  102.623-16.21Q 101.363-16.34  100.643-16.59Q 99.913-16.85  99.543-17.34Q 99.163-17.84  99.063-18.6Q 98.953-19.36  98.953-20.16L 98.953-20.16Q 98.953-21.52  99.563-22.29Q 100.173-23.06  101.583-23.44Q 102.983-23.81  105.283-23.91Q 107.583-24  110.953-24L 110.953-24Q 114.043-24  116.073-23.82Q 118.103-23.65  119.293-23.19Q 120.493-22.73  120.973-21.94Q 121.453-21.14  121.453-19.88L 121.453-19.88L 125.953-19.88Q 125.953-21.91  125.273-23.39Q 124.593-24.87  122.893-25.84Q 121.193-26.81  118.303-27.28Q 115.403-27.75  110.953-27.75L 110.953-27.75Q 106.453-27.75  103.313-27.35Q 100.173-26.95  98.203-26.05Q 96.233-25.15  95.343-23.71Q 94.453-22.27  94.453-20.16L 94.453-20.16Q 94.453-18.61  94.733-17.29Q 95.013-15.96  95.693-15.06Q 96.373-14.16  97.533-13.62Q 98.693-13.08  100.443-12.79Q 102.183-12.49  104.603-12.4Q 107.013-12.3  110.203-12.3Z"></path></svg>